<?xml version="1.0" encoding="UTF-8" standalone="no"?>
<!-- Created with Inkscape (http://www.inkscape.org/) -->

<svg
   width="200mm"
   height="200mm"
   viewBox="0 0 200 200"
   version="1.1"
   id="svg111754"
   inkscape:version="1.1.2 (0a00cf5339, 2022-02-04)"
   sodipodi:docname="fsl2025.svg"
   xmlns:inkscape="http://www.inkscape.org/namespaces/inkscape"
   xmlns:sodipodi="http://sodipodi.sourceforge.net/DTD/sodipodi-0.dtd"
   xmlns="http://www.w3.org/2000/svg"
   xmlns:svg="http://www.w3.org/2000/svg">
  <sodipodi:namedview
     id="namedview111756"
     pagecolor="#ffffff"
     bordercolor="#666666"
     borderopacity="1.0"
     inkscape:pageshadow="2"
     inkscape:pageopacity="0.0"
     inkscape:pagecheckerboard="0"
     inkscape:document-units="mm"
     showgrid="false"
     inkscape:zoom="0.64052329"
     inkscape:cx="397.33138"
     inkscape:cy="560.47923"
     inkscape:window-width="2560"
     inkscape:window-height="1043"
     inkscape:window-x="0"
     inkscape:window-y="0"
     inkscape:window-maximized="1"
     inkscape:current-layer="layer1" />
  <defs
     id="defs111751">
    <clipPath
       clipPathUnits="userSpaceOnUse"
       id="clipPath892">
      <path
         d="m 353.768,83.5839 h 41.611 V 42.2955 h -41.611 z"
         id="path890" />
    </clipPath>
  </defs>
  <g
     inkscape:label="Layer 1"
     inkscape:groupmode="layer"
     id="layer1">
    <g
       id="g111697"
       transform="matrix(2.7388086,0,0,-2.7388086,-557.629,213.07161)"
       inkscape:export-filename="/home/tcarreira/fsl2025.png"
       inkscape:export-xdpi="152.53999"
       inkscape:export-ydpi="152.53999">
      <g
         id="g111655"
         transform="matrix(0.63557148,0,0,0.63557148,1.9196835,1.2699747)">
        <g
           id="g111645" />
        <g
           id="g111653">
          <g
             clip-path="url(#clipPath892)"
             opacity="0.660004"
             id="g111651">
            <g
               transform="translate(388.8866,42.2955)"
               id="g111649">
              <path
                 d="m 0,0 h -28.626 c -3.586,0 -6.493,2.907 -6.493,6.493 v 28.303 c 0,3.586 2.907,6.492 6.493,6.492 H 0 c 3.586,0 6.493,-2.906 6.493,-6.492 V 6.493 C 6.493,2.907 3.586,0 0,0"
                 style="fill:#1c71b7;fill-opacity:1;fill-rule:nonzero;stroke:none"
                 id="path111647" />
            </g>
          </g>
        </g>
      </g>
      <g
         id="g111659"
         transform="matrix(0.63557148,0,0,0.63557148,238.0315,53.197436)">
        <path
           d="m 0,0 c 10.362,1.7 20.14,-5.322 21.841,-15.684 1.7,-10.362 -5.322,-20.14 -15.684,-21.841 -10.363,-1.7 -20.141,5.322 -21.841,15.684 C -17.384,-11.478 -10.362,-1.7 0,0"
           style="fill:#ffffff;fill-opacity:1;fill-rule:nonzero;stroke:none"
           id="path111657" />
      </g>
      <g
         id="g111663"
         transform="matrix(0.63557148,0,0,0.63557148,222.68035,68.724066)">
        <path
           d="m 0,0 c 0.017,0.001 0.034,0.003 0.05,0.004 0.129,0.008 0.256,0.012 0.383,0.012 0.01,0 0.02,0.001 0.031,0.001 0.025,0 0.049,-0.001 0.074,-0.001 0.038,0 0.076,-0.001 0.113,-0.002 C 0.697,0.013 0.742,0.011 0.787,0.008 0.821,0.007 0.856,0.005 0.891,0.003 0.941,0 0.992,-0.005 1.042,-0.009 1.071,-0.012 1.099,-0.014 1.128,-0.017 1.206,-0.025 1.284,-0.034 1.362,-0.045 2.798,-0.24 4.127,-0.912 5.135,-1.953 6.225,-3.102 6.802,-4.608 6.802,-6.309 L 6.801,-20.621 v -1.07 -0.658 -0.29 c 0.368,0.358 0.774,0.676 1.211,0.948 1.109,0.693 2.39,1.063 3.698,1.07 0.013,0 0.025,0 0.037,0 h 52.367 c 2.683,0 3.91,1.94 4.145,3.6 0.235,1.661 -0.402,3.863 -2.973,4.606 -0.057,0.017 -0.113,0.033 -0.17,0.048 L 9.836,2.445 C 9.676,2.488 9.521,2.526 9.364,2.56 L 9.328,2.569 C 9.319,2.571 9.31,2.573 9.301,2.575 9.147,2.608 8.993,2.636 8.862,2.659 L 8.831,2.665 C 8.818,2.667 8.805,2.67 8.792,2.672 8.652,2.695 8.511,2.715 8.37,2.734 8.343,2.737 8.316,2.74 8.289,2.743 8.138,2.762 7.992,2.776 7.852,2.788 7.84,2.788 7.826,2.789 7.813,2.79 7.157,2.839 6.499,2.83 5.845,2.761 L 5.734,2.749 C 3.446,2.488 1.299,1.513 -0.401,-0.039 c 0.004,0 0.009,0 0.013,0.001 C -0.258,-0.021 -0.129,-0.009 0,0"
           style="fill:#1c71b7;fill-opacity:1;fill-rule:nonzero;stroke:none"
           id="path111661" />
      </g>
      <g
         id="g111667"
         transform="matrix(0.63557148,0,0,0.63557148,245.17196,68.830143)">
        <path
           d="M 0,0 C 3.567,-0.956 7.233,1.161 8.188,4.728 9.144,8.294 7.027,11.96 3.461,12.916 -0.106,13.872 -3.772,11.755 -4.728,8.188 v 0 C -5.683,4.622 -3.567,0.956 0,0 0,0 0,0 0,0"
           style="fill:#1c71b7;fill-opacity:1;fill-rule:nonzero;stroke:none"
           id="path111665" />
      </g>
      <g
         id="g111671"
         transform="matrix(0.63557148,0,0,0.63557148,257.41224,13.826388)">
        <path
           d="m 0,0 c -0.066,-0.006 -0.132,-0.013 -0.198,-0.017 -0.056,-0.004 -0.112,-0.004 -0.168,-0.006 -0.071,-0.003 -0.143,-0.006 -0.215,-0.006 -0.006,0 -0.013,-10e-4 -0.02,-10e-4 -0.102,0 -0.205,0.003 -0.308,0.008 -0.032,10e-4 -0.064,0.004 -0.096,0.006 -0.084,0.005 -0.168,0.011 -0.251,0.02 -0.038,0.003 -0.075,0.007 -0.113,0.011 -0.094,0.011 -0.187,0.024 -0.28,0.039 C -1.67,0.057 -1.69,0.06 -1.71,0.063 -1.822,0.082 -1.934,0.104 -2.046,0.129 -2.077,0.136 -2.109,0.144 -2.141,0.151 -2.225,0.171 -2.31,0.193 -2.394,0.216 -2.427,0.225 -2.46,0.234 -2.493,0.244 -2.605,0.277 -2.716,0.311 -2.827,0.35 -2.966,0.398 -3.112,0.455 -3.258,0.519 -3.327,0.548 -3.402,0.582 -3.475,0.617 -3.506,0.632 -3.539,0.648 -3.572,0.664 -3.598,0.677 -3.624,0.691 -3.65,0.704 -4.367,1.068 -5.005,1.57 -5.528,2.181 -5.533,2.187 -5.538,2.193 -5.543,2.199 -5.611,2.28 -5.677,2.362 -5.741,2.446 v 0 l -0.001,10e-4 c -0.052,0.068 -0.103,0.139 -0.153,0.211 -0.049,0.07 -0.096,0.141 -0.141,0.213 -0.006,0.01 -0.011,0.02 -0.017,0.029 -0.038,0.061 -0.075,0.122 -0.11,0.183 -0.05,0.084 -0.092,0.164 -0.126,0.231 L -6.29,3.316 v 0 0 C -6.331,3.394 -6.369,3.474 -6.406,3.553 -6.438,3.622 -6.47,3.696 -6.499,3.77 l -0.002,0.004 c -0.035,0.084 -0.069,0.169 -0.1,0.258 -0.002,0.004 -0.003,0.007 -0.004,0.01 L -6.607,4.047 -6.608,4.051 C -6.636,4.129 -6.664,4.213 -6.69,4.295 v 0 L -6.691,4.298 C -6.692,4.3 -6.692,4.303 -6.693,4.305 -6.714,4.372 -6.731,4.434 -6.748,4.496 L -6.749,4.499 C -6.749,4.5 -6.75,4.502 -6.75,4.504 -6.765,4.556 -6.777,4.611 -6.79,4.665 -6.801,4.71 -6.814,4.754 -6.824,4.8 -6.847,4.902 -6.867,5.007 -6.886,5.112 -6.902,5.205 -6.915,5.297 -6.927,5.39 -6.939,5.483 -6.95,5.578 -6.958,5.676 c -0.008,0.085 -0.014,0.178 -0.018,0.27 0,0.005 0,0.009 0,0.013 l -0.001,0.005 v 0.003 c -0.004,0.083 -0.007,0.166 -0.006,0.25 v 0 l -0.002,0.034 v 0.021 c 0,0.012 0,0.024 0,0.035 l 0.001,14.308 v 1.069 0 0.948 c -0.369,-0.358 -0.775,-0.676 -1.211,-0.948 -1.114,-0.696 -2.401,-1.066 -3.714,-1.07 -0.007,0 -0.014,0 -0.022,0 h -11.344 -1.444 -2.696 -1.288 -14.195 v 0 l -5.75,10e-4 h -0.268 -0.361 l -15.02,-10e-4 c -2.683,0 -3.91,-1.939 -4.145,-3.6 -0.236,-1.661 0.402,-3.864 2.973,-4.607 0.058,-0.017 0.114,-0.033 0.17,-0.048 l 55.28,-14.812 c 0.14,-0.038 0.29,-0.074 0.472,-0.114 L -9.5,-2.579 c 0.149,-0.032 0.299,-0.061 0.447,-0.086 L -9,-2.675 c 0.175,-0.029 0.323,-0.051 0.463,-0.068 l 0.062,-0.007 c 0.132,-0.017 0.276,-0.031 0.442,-0.044 0.022,-0.002 0.047,-0.004 0.075,-0.007 0.099,-0.007 0.199,-0.013 0.298,-0.016 l 0.018,-10e-4 c 0.055,-0.002 0.098,-0.005 0.14,-0.006 0.088,-0.002 0.172,-0.004 0.256,-0.004 0.095,-0.002 0.187,10e-4 0.278,0.002 0.073,10e-4 0.134,0.003 0.195,0.005 h 10e-4 c 0.024,0.001 0.047,0.002 0.07,0.002 0.063,0.003 0.127,0.007 0.191,0.011 0.105,0.006 0.209,0.014 0.313,0.023 0.034,0.003 0.072,0.007 0.111,0.011 l 0.06,0.006 c 2.321,0.241 4.504,1.218 6.23,2.787 C 0.197,0.018 0.19,0.018 0.183,0.017 0.122,0.01 0.061,0.006 0,0"
           style="fill:#3c9cd7;fill-opacity:1;fill-rule:nonzero;stroke:none"
           id="path111669" />
      </g>
      <g
         id="g111675"
         transform="matrix(0.63557148,0,0,0.63557148,234.80394,13.715163)">
        <path
           d="m 0,0 c -3.567,0.956 -7.233,-1.161 -8.188,-4.728 -0.956,-3.566 1.161,-7.232 4.727,-8.188 3.567,-0.956 7.233,1.161 8.189,4.728 v 0 C 5.683,-4.622 3.567,-0.956 0,0 0,0 0,0 0,0"
           style="fill:#3c9cd7;fill-opacity:1;fill-rule:nonzero;stroke:none"
           id="path111673" />
      </g>
      <g
         id="g111679"
         transform="matrix(0.63557148,0,0,0.63557148,225.64307,28.288373)">
        <path
           d="M 0,0 H 1.07 V 0 H 2.017 V 0 C 1.659,0.368 1.341,0.774 1.07,1.21 0.37,2.331 -0.001,3.625 0.001,4.946 v 52.366 c 0,2.684 -1.94,3.91 -3.6,4.145 -1.66,0.235 -3.865,-0.402 -4.608,-2.973 C -8.223,58.426 -8.24,58.37 -8.255,58.312 L -23.067,3.033 c -0.041,-0.152 -0.079,-0.307 -0.113,-0.46 -0.002,-0.012 -0.005,-0.025 -0.008,-0.037 l -0.004,-0.022 c -0.03,-0.137 -0.059,-0.283 -0.087,-0.443 -0.002,-0.013 -0.004,-0.026 -0.006,-0.039 l -0.007,-0.038 c -0.023,-0.132 -0.043,-0.272 -0.064,-0.44 L -23.365,1.486 C -23.384,1.327 -23.399,1.177 -23.41,1.039 l -0.002,-0.036 c -0.019,-0.256 -0.029,-0.489 -0.03,-0.713 -0.001,-0.082 -0.001,-0.156 0.001,-0.231 V 0.043 c 0,-0.075 0.002,-0.151 0.005,-0.226 0.002,-0.075 0.005,-0.148 0.01,-0.223 l 10e-4,-0.016 c 0.004,-0.075 0.008,-0.15 0.015,-0.225 l 0.001,-0.016 c 0.004,-0.066 0.011,-0.131 0.018,-0.198 l 0.002,-0.022 0.008,-0.075 c 0.241,-2.327 1.222,-4.517 2.799,-6.245 -0.01,0.077 -0.019,0.155 -0.026,0.232 -0.001,0.015 -0.002,0.029 -0.003,0.043 -0.006,0.067 -0.012,0.134 -0.015,0.2 -0.002,0.028 -0.003,0.056 -0.004,0.084 -0.003,0.053 -0.005,0.106 -0.006,0.159 -0.001,0.031 -0.001,0.062 -0.001,0.093 -0.001,0.05 0,0.1 0,0.15 0.001,0.032 0.001,0.063 0.002,0.094 0.002,0.05 0.004,0.1 0.006,0.15 0.002,0.03 0.004,0.06 0.005,0.09 0.004,0.053 0.009,0.106 0.013,0.159 0.003,0.026 0.005,0.051 0.007,0.077 0.008,0.078 0.018,0.155 0.028,0.232 0.195,1.436 0.867,2.765 1.909,3.772 1.149,1.091 2.655,1.667 4.355,1.667 z"
           style="fill:#0f3c80;fill-opacity:1;fill-rule:nonzero;stroke:none"
           id="path111677" />
      </g>
      <g
         id="g111683"
         transform="matrix(0.63557148,0,0,0.63557148,204.23219,48.695492)">
        <path
           d="M 0,0 C 0.99,3.557 4.676,5.639 8.233,4.649 11.79,3.66 13.872,-0.026 12.882,-3.584 11.893,-7.141 8.207,-9.223 4.649,-8.233 1.092,-7.243 -0.99,-3.557 0,0"
           style="fill:#0f3c80;fill-opacity:1;fill-rule:nonzero;stroke:none"
           id="path111681" />
      </g>
      <g
         id="g111687"
         transform="matrix(0.63557148,0,0,0.63557148,272.74972,39.093469)">
        <path
           d="m 0,0 c -3.567,0.956 -7.233,-1.161 -8.188,-4.728 -0.956,-3.566 1.161,-7.232 4.727,-8.188 3.567,-0.956 7.233,1.161 8.189,4.728 v 0 C 5.683,-4.622 3.567,-0.956 0,0"
           style="fill:#68baf1;fill-opacity:1;fill-rule:nonzero;stroke:none"
           id="path111685" />
      </g>
      <g
         id="g111691"
         transform="matrix(0.63557148,0,0,0.63557148,239.3001,45.466281)">
        <path
           d="m 0,0 c 3.644,0.598 7.082,-1.871 7.68,-5.515 0.598,-3.644 -1.871,-7.082 -5.515,-7.68 -3.644,-0.598 -7.082,1.871 -7.68,5.515 C -6.113,-4.036 -3.644,-0.598 0,0"
           style="fill:#0f3c80;fill-opacity:1;fill-rule:nonzero;stroke:none"
           id="path111689" />
      </g>
      <g
         id="g111695"
         transform="matrix(0.63557148,0,0,0.63557148,269.06531,52.622625)">
        <path
           d="M 0,0 C 0.003,0.012 0.005,0.023 0.007,0.035 L 0.012,0.057 C 0.043,0.196 0.071,0.342 0.099,0.501 0.101,0.515 0.104,0.529 0.106,0.542 L 0.112,0.578 C 0.135,0.708 0.156,0.853 0.177,1.02 L 0.185,1.081 C 0.204,1.237 0.218,1.383 0.23,1.529 l 0.002,0.035 c 0.226,3.01 -0.798,5.98 -2.83,8.212 0.01,-0.077 0.019,-0.153 0.026,-0.23 0.002,-0.021 0.003,-0.041 0.005,-0.061 0.005,-0.061 0.01,-0.122 0.014,-0.182 10e-4,-0.031 0.003,-0.062 0.004,-0.093 0.002,-0.05 0.004,-0.1 0.005,-0.15 10e-4,-0.033 10e-4,-0.066 0.002,-0.099 0,-0.048 0,-0.096 -0.001,-0.143 0,-0.033 -10e-4,-0.067 -0.002,-0.1 C -2.546,8.67 -2.548,8.622 -2.551,8.574 -2.553,8.542 -2.554,8.511 -2.556,8.48 -2.56,8.428 -2.564,8.375 -2.569,8.323 -2.571,8.297 -2.573,8.271 -2.576,8.245 -2.584,8.167 -2.593,8.09 -2.604,8.013 -2.798,6.577 -3.471,5.248 -4.512,4.241 -5.661,3.15 -7.167,2.574 -8.868,2.574 L -23.18,2.573 h -1.069 v 0 h -0.948 c 0.359,-0.368 0.676,-0.774 0.948,-1.211 0.699,-1.12 1.07,-2.415 1.069,-3.736 v -0.367 -0.255 -24.445 -5.9 0 -5.379 -0.637 -0.582 -0.488 -14.311 0 l 0.001,-0.019 v -0.018 -0.055 c 0,-0.047 0.002,-0.094 0.004,-0.141 0.004,-0.074 0.009,-0.145 0.014,-0.214 0,-0.002 0,-0.005 0,-0.008 0.005,-0.057 0.013,-0.122 0.021,-0.188 0.008,-0.063 0.017,-0.124 0.028,-0.185 0.024,-0.141 0.056,-0.281 0.092,-0.413 0.006,-0.023 0.012,-0.044 0.018,-0.065 l 10e-4,-0.003 c 0.006,-0.021 0.012,-0.041 0.018,-0.061 l 0.004,-0.012 c 0.013,-0.04 0.026,-0.08 0.04,-0.12 0.004,-0.011 0.008,-0.023 0.012,-0.035 l 0.001,-0.002 10e-4,-0.002 c 0.019,-0.055 0.04,-0.108 0.062,-0.16 l 0.015,-0.035 c 0.015,-0.038 0.031,-0.077 0.049,-0.114 0.024,-0.053 0.047,-0.101 0.071,-0.147 l 0.006,-0.013 c 0.026,-0.05 0.053,-0.098 0.08,-0.146 l 0.003,-0.005 c 0.048,-0.085 0.106,-0.178 0.169,-0.268 0.029,-0.042 0.057,-0.082 0.087,-0.12 l 0.009,-0.012 c 0.365,-0.478 0.833,-0.867 1.371,-1.137 l 0.014,-0.007 c 0.032,-0.017 0.065,-0.034 0.097,-0.049 0.051,-0.024 0.097,-0.045 0.143,-0.065 0.104,-0.045 0.201,-0.083 0.293,-0.115 0.071,-0.025 0.144,-0.048 0.217,-0.07 0.913,-0.27 1.888,-0.245 2.787,0.07 0.159,0.057 0.314,0.125 0.464,0.201 0.673,0.348 1.228,0.887 1.595,1.55 0.179,0.319 0.32,0.658 0.42,1.009 l 0.004,0.015 c 0.015,0.052 0.03,0.104 0.044,0.156 L -0.113,-0.462 C -0.072,-0.308 -0.034,-0.153 0,0"
           style="fill:#68baf1;fill-opacity:1;fill-rule:nonzero;stroke:none"
           id="path111693" />
      </g>
    </g>
  </g>
</svg>
